<svg xmlns="http://www.w3.org/2000/svg" viewBox="0 0 800 600" width="800" height="600" role="img" aria-label="A-Frame ev illüstrasiyası">
<defs>
<linearGradient id="skydawn" x1="0" y1="0" x2="0" y2="1"><stop offset="0" stop-color="#F7C99B"/><stop offset="1" stop-color="#FBEBD6"/></linearGradient>
<linearGradient id="gldawn" x1="0" y1="0" x2="0" y2="1"><stop offset="0" stop-color="#FFD37A" stop-opacity=".95"/><stop offset="1" stop-color="#FFD37A" stop-opacity=".55"/></linearGradient>
</defs>
<rect width="800" height="600" fill="url(#skydawn)"/>

<circle cx="612" cy="118" r="46" fill="#FFF1D0" opacity=".9"/>
<path d="M0 300 L120 208 L214 268 L318 180 L430 292 L520 236 L640 316 L800 244 L800 600 L0 600Z" fill="#C9A98C"/>
<path d="M0 366 L96 300 L206 358 L300 288 L408 372 L512 316 L628 388 L724 330 L800 372 L800 600 L0 600Z" fill="#A88A72" opacity=".95"/>
<path d="M0 440 L130 386 L268 442 L384 396 L508 452 L640 404 L800 456 L800 600 L0 600Z" fill="#7E6653"/>
<rect y="470" width="800" height="130" fill="#5C4A3C"/>
<g fill="#4A5D48">
<path d="M96 470 L120 396 L144 470Z"/><path d="M104 446 L120 410 L136 446Z"/>
<path d="M150 470 L168 418 L186 470Z"/>
<path d="M640 470 L666 388 L692 470Z"/><path d="M648 444 L666 404 L684 444Z"/>
<path d="M700 470 L718 420 L736 470Z"/>
<path d="M42 470 L58 424 L74 470Z"/>
</g>
<g>
<path d="M400 168 L516 474 L284 474Z" fill="#3A2E27"/>
<path d="M400 168 L432 168 L548 474 L516 474Z" fill="#241C18"/>
<path d="M400 214 L470 400 L330 400Z" fill="#241C18" opacity=".35"/>
<path d="M366 474 L400 384 L434 474Z" fill="url(#gldawn)"/>
<path d="M400 286 L436 380 L364 380Z" fill="url(#gldawn)" opacity=".9"/>
<rect x="392" y="474" width="16" height="0" fill="#241C18"/>
</g>
<ellipse cx="400" cy="486" rx="150" ry="16" fill="#000" opacity=".10"/>
<path d="M0 528 Q200 508 400 526 T800 520 L800 600 L0 600Z" fill="#5C4A3C" opacity=".55"/>
</svg>